<?xml version="1.0" encoding="UTF-8"?>
<svg version="1.1" xmlns="http://www.w3.org/2000/svg" width="960" height="960">
<path d="M0 0 C316.8 0 633.6 0 960 0 C960 316.8 960 633.6 960 960 C643.2 960 326.4 960 0 960 C0 643.2 0 326.4 0 0 Z " fill="#FEFEFE" transform="translate(0,0)"/>
<path d="M0 0 C22.0932115 -0.54994417 41.04904848 4.18687776 60.79931641 14.06201172 C60.79931641 14.72201172 60.79931641 15.38201172 60.79931641 16.06201172 C61.47994141 16.28888672 62.16056641 16.51576172 62.86181641 16.74951172 C65.90835293 18.11073016 68.30285448 19.74981513 70.95556641 21.74560547 C73.16442924 23.3226961 75.46263406 24.68140176 77.79931641 26.06201172 C79.7428227 27.23965588 81.68028667 28.42732528 83.61181641 29.62451172 C84.58763672 30.22392578 85.56345703 30.82333984 86.56884766 31.44091797 C87.30490234 31.97587891 88.04095703 32.51083984 88.79931641 33.06201172 C88.79931641 33.72201172 88.79931641 34.38201172 88.79931641 35.06201172 C89.38841797 35.32111328 89.97751953 35.58021484 90.58447266 35.84716797 C93.61397789 37.50885426 95.58451035 39.79877459 97.92041016 42.30810547 C100.05495523 44.30064339 102.29010565 45.56808855 104.79931641 47.06201172 C107.11751937 48.77356876 109.36218732 50.57419879 111.61181641 52.37451172 C112.86281202 53.36318088 114.11411183 54.35146525 115.36572266 55.33935547 C117.29534187 56.86707942 119.2201039 58.39990619 121.13916016 59.94091797 C126.00781771 63.7542019 131.19451922 66.46634745 136.79931641 69.06201172 C136.79931641 69.72201172 136.79931641 70.38201172 136.79931641 71.06201172 C137.38197266 71.20896484 137.96462891 71.35591797 138.56494141 71.50732422 C143.36723459 72.82115915 147.56801575 74.39471729 151.92431641 76.81201172 C167.64945038 84.90612677 185.85211056 88.02622935 203.18334961 90.63623047 C204.91514368 90.91810157 206.64120355 91.2380507 208.35864258 91.59716797 C216.38271659 93.2668313 224.32328274 93.45628217 232.48681641 93.43701172 C233.19519653 93.43779724 233.90357666 93.43858276 234.63342285 93.43939209 C245.30583555 93.42521209 254.60144175 92.29216376 264.79931641 89.06201172 C267.97454703 88.44341386 271.14742188 87.93457138 274.34619141 87.45654297 C276.54242473 87.1033271 278.65249556 86.63884442 280.79931641 86.06201172 C277.9065987 102.47437848 269.14875307 118.46283111 259.79931641 132.06201172 C259.20763672 132.92826172 258.61595703 133.79451172 258.00634766 134.68701172 C251.11640895 144.46078044 243.32636264 153.67779708 234.79931641 162.06201172 C233.99107422 162.92246094 233.99107422 162.92246094 233.16650391 163.80029297 C207.80899703 190.55179891 169.05599806 202.92320127 133.79931641 209.06201172 C133.02193115 209.234021 132.2445459 209.40603027 131.44360352 209.58325195 C101.96588707 214.92032166 68.17161295 206.98181087 40.79931641 196.06201172 C40.79931641 195.40201172 40.79931641 194.74201172 40.79931641 194.06201172 C39.69910156 193.87638672 39.69910156 193.87638672 38.57666016 193.68701172 C27.77419224 191.2560766 17.87973142 183.11562173 8.79931641 177.06201172 C8.79931641 176.40201172 8.79931641 175.74201172 8.79931641 175.06201172 C8.08775391 174.82095703 7.37619141 174.57990234 6.64306641 174.33154297 C3.37579066 172.87293772 1.04266744 171.04205928 -1.70068359 168.74951172 C-2.61849609 167.99025391 -3.53630859 167.23099609 -4.48193359 166.44873047 C-13.02699416 158.9472477 -21.56412894 150.28161961 -27.61083984 140.58935547 C-28.88723766 138.56029064 -30.20358824 136.59495608 -31.57177734 134.62841797 C-45.20068359 114.92801173 -45.20068359 114.92801173 -45.20068359 107.06201172 C-45.86068359 107.06201172 -46.52068359 107.06201172 -47.20068359 107.06201172 C-48.15812588 104.18968487 -49.11361784 101.31689816 -50.06005859 98.44091797 C-50.74371294 96.41570905 -51.45390985 94.39875371 -52.21630859 92.40185547 C-55.81991373 82.69214164 -57.18291001 72.51360495 -58.78344727 62.32348633 C-59.17510663 59.90731823 -59.17510663 59.90731823 -60.20068359 57.06201172 C-60.52079767 52.41757394 -60.59907687 47.77541025 -60.66064453 43.12109375 C-60.68721858 41.5885487 -60.72810967 40.0561814 -60.78369141 38.52441406 C-61.23806524 25.8375303 -61.23806524 25.8375303 -58.67724609 21.45458984 C-56.93038147 19.65517431 -55.39395789 18.27144583 -53.20068359 17.06201172 C-52.54068359 17.06201172 -51.88068359 17.06201172 -51.20068359 17.06201172 C-51.20068359 16.40201172 -51.20068359 15.74201172 -51.20068359 15.06201172 C-49.37463717 14.14898851 -47.54744835 13.23821392 -45.71630859 12.33544922 C-43.98056012 11.45679394 -42.26236666 10.54288371 -40.56005859 9.60107422 C-27.72035739 2.6900875 -14.48994803 0.40830339 0 0 Z " fill="#FDFDFD" transform="translate(351.20068359375,470.93798828125)"/>
<path d="M0 0 C0.94359375 0.44730469 1.8871875 0.89460938 2.859375 1.35546875 C13.3249417 6.8569626 24.48750237 16.03209272 31 26 C31 26.99 31 27.98 31 29 C31.66 29 32.32 29 33 29 C39.30590764 40.50981201 45.15421862 52.29022316 45.03710938 65.73852539 C45.03175171 66.53940079 45.02639404 67.34027618 45.02087402 68.16542053 C45.0139856 68.77083176 45.00709717 69.37624298 45 70 C46.25930328 69.99555878 47.51860657 69.99111755 48.81607056 69.98654175 C60.73177605 69.94585276 72.64746729 69.91594731 84.5632267 69.89637566 C90.68801411 69.88597518 96.81274507 69.87188474 102.9375 69.84912109 C108.85732955 69.82725884 114.77710506 69.81540333 120.69697189 69.81024551 C122.94618962 69.80657365 125.19540467 69.799404 127.44459915 69.78853989 C139.1413236 69.73433138 150.47313673 69.76636454 162 72 C162 72.66 162 73.32 162 74 C162.72960937 74.13148438 163.45921875 74.26296875 164.2109375 74.3984375 C179.64883194 77.72817944 192.7049075 87.75032874 201.16015625 100.7890625 C209.73324647 115.06668044 210.39450406 133.93007194 206.7199707 149.921875 C205.91149972 152.98227683 204.98781574 155.99313231 204 159 C203.76152344 159.79277344 203.52304687 160.58554687 203.27734375 161.40234375 C200.0131665 171.27305938 193.51029023 179.94032719 186 187 C185.34 187 184.68 187 184 187 C184 187.66 184 188.32 184 189 C178.5364794 193.38244099 173.04637399 195.64998285 166.12890625 196.3828125 C164 196 164 196 162.15234375 194.3671875 C161 192 161 192 160.8515625 189.01953125 C162.52269594 184.62570081 165.26337719 183.62485387 169.375 181.6875 C170.06078125 181.34138672 170.7465625 180.99527344 171.453125 180.63867188 C174.26262457 179.23665506 177.01912545 177.99362485 180 177 C181.20882096 174.99983534 181.20882096 174.99983534 182 173 C182.66 173 183.32 173 184 173 C184.3403125 172.0409375 184.3403125 172.0409375 184.6875 171.0625 C185.77619249 168.52221753 186.95123212 166.41062179 188.375 164.0625 C196.01925373 150.22572025 197.59564583 133.547357 193.50830078 118.3059082 C190.1671521 107.45941127 184.03438233 98.800203 174.15625 92.8984375 C172.7965239 92.21216065 171.40175523 91.59574597 170 91 C170 90.34 170 89.68 170 89 C169.236875 88.896875 168.47375 88.79375 167.6875 88.6875 C163.74888398 87.95318176 160.00306496 86.87971666 156.171875 85.71875 C147.02937028 83.64704942 137.67174204 83.85699588 128.34719849 83.87301636 C126.87711418 83.87186249 125.40703017 83.87027318 123.93694675 83.86828911 C119.91969609 83.86413263 115.90246934 83.86616975 111.88521862 83.86927533 C107.54444406 83.87154413 103.20367353 83.86804254 98.86289978 83.86529541 C90.36985804 83.86085524 81.87682514 83.8618062 73.38378306 83.86470805 C66.48331104 83.86696807 59.58284151 83.86727201 52.68236923 83.86618423 C51.69962578 83.866031 50.71688233 83.86587777 49.70435878 83.86571989 C47.70790204 83.86540016 45.71144531 83.86507595 43.71498857 83.8647473 C25.00869321 83.86189788 6.30240275 83.86517158 -12.40389182 83.87054767 C-28.46099543 83.8750194 -44.51809182 83.87423569 -60.57519531 83.86962891 C-79.22468151 83.86428087 -97.87416343 83.86216811 -116.52365029 83.86524117 C-118.5108548 83.86555972 -120.49805931 83.86587409 -122.48526382 83.86618423 C-123.95188345 83.86641565 -123.95188345 83.86641565 -125.44813176 83.86665174 C-132.34481548 83.86751589 -139.24149648 83.86605628 -146.13817978 83.86370468 C-154.53592411 83.86090414 -162.93365909 83.86165052 -171.33140235 83.86698543 C-175.61743659 83.86961834 -179.90345523 83.87063434 -184.18948936 83.86733627 C-188.10973994 83.86436519 -192.02996038 83.86597975 -195.9502082 83.87131383 C-197.37123591 83.87243447 -198.79226614 83.87185459 -200.21329223 83.86943804 C-202.13938483 83.8664128 -204.06548453 83.87010302 -205.99157524 83.87415886 C-207.06304137 83.87432121 -208.1345075 83.87448356 -209.2384423 83.87465084 C-212.23950029 83.91941543 -212.23950029 83.91941543 -216 85 C-216 102.49 -216 119.98 -216 138 C-211.05 135.03 -206.1 132.06 -201 129 C-197.32614067 127.22107864 -193.75714086 125.54562055 -190 124 C-189.34128906 123.70480469 -188.68257813 123.40960938 -188.00390625 123.10546875 C-182.8648629 120.93660014 -177.65110542 120.22155034 -172.14453125 119.47265625 C-169.58493022 119.08792119 -167.2351634 118.56505508 -164.75 117.875 C-152.56066704 115.0844018 -139.93604015 117.10277325 -128 120 C-126.42605469 120.34224609 -126.42605469 120.34224609 -124.8203125 120.69140625 C-100.76513136 126.15849287 -78.29025673 140.84748994 -59.79296875 156.75390625 C-57.01110452 158.99106979 -55.49938688 159.69123057 -52 160 C-52 159.34 -52 158.68 -52 158 C-16.66777371 141.64068037 25.52954748 132.43721933 64 142 C65.03769531 142.23976563 66.07539062 142.47953125 67.14453125 142.7265625 C95.2009208 149.71187426 120.17901419 170.83467868 135.7421875 194.66796875 C142.04455941 205.86625104 138.43423626 216.90004684 135.38671875 228.62109375 C134.41691061 232.0100131 133.30236328 234.29133731 131 237 C130.26483945 238.66728865 129.58241041 240.35826907 128.9375 242.0625 C126.58810276 247.86436513 123.84130644 253.39358012 120.9375 258.9375 C120.3021936 260.16255249 120.3021936 260.16255249 119.65405273 261.41235352 C117.42055862 265.63233743 115.11649107 269.35159142 112 273 C111.2575 274.2375 111.2575 274.2375 110.5 275.5 C108.86941908 278.21763486 106.99606553 280.53830617 105 283 C104.32839844 283.84820313 103.65679688 284.69640625 102.96484375 285.5703125 C101.96130859 286.83488281 101.96130859 286.83488281 100.9375 288.125 C100.26589844 288.97320313 99.59429688 289.82140625 98.90234375 290.6953125 C95.84102417 294.40409803 95.84102417 294.40409803 94 296 C93.34 296 92.68 296 92 296 C91.62875 296.86625 91.62875 296.86625 91.25 297.75 C89.81700012 300.32939979 88.21575324 302.06121592 86 304 C85.34 304 84.68 304 84 304 C84 304.66 84 305.32 84 306 C82.53564453 307.50024414 82.53564453 307.50024414 80.5078125 309.22265625 C79.7746582 309.84543457 79.04150391 310.46821289 78.28613281 311.10986328 C64.48955633 322.51664405 50.31144586 331.53301315 34.23999023 339.38793945 C31.35892186 340.79637311 28.67356422 342.21762385 26 344 C24.13973048 344.53350072 22.26155788 345.00607785 20.375 345.4375 C16.68299661 346.31844565 13.08276403 347.24668877 9.5 348.5 C-19.57192099 358.39682417 -49.99865003 357.42662168 -80 353 C-80 352.34 -80 351.68 -80 351 C-81.03125 350.896875 -82.0625 350.79375 -83.125 350.6875 C-91.84800543 349.58154753 -100.16237858 348.05394211 -108 344 C-109.9916571 343.30880795 -111.99168336 342.64117761 -114 342 C-123.65507964 338.32594315 -132.83379206 333.73433615 -142 329 C-143.2684375 328.35224609 -143.2684375 328.35224609 -144.5625 327.69140625 C-162.77229222 318.01745413 -181.36176227 303.09366167 -193 286 C-193.66 285.67 -194.32 285.34 -195 285 C-195.95089018 283.36990255 -196.89535428 281.73567055 -197.8046875 280.08203125 C-199.07016862 277.87777819 -200.44805129 275.79056839 -201.875 273.6875 C-220.57638117 245.75260482 -230.08519212 211.43272571 -230.17700195 177.86230469 C-230.18357315 176.79758942 -230.19014435 175.73287415 -230.19691467 174.63589478 C-230.21646731 171.14788729 -230.22826286 167.65992225 -230.23828125 164.171875 C-230.24235678 162.97495277 -230.2464323 161.77803055 -230.25063133 160.54483795 C-230.27140401 154.22260211 -230.28574971 147.90038747 -230.29516602 141.578125 C-230.30627845 135.05237256 -230.34075905 128.52695658 -230.38033772 122.0013237 C-230.4064493 116.9741756 -230.41485247 111.94710894 -230.41844749 106.91989899 C-230.42331888 104.51333566 -230.43494847 102.1067761 -230.45348549 99.70027924 C-230.47778444 96.33994893 -230.47692972 92.9805081 -230.4699707 89.62011719 C-230.48278076 88.62881805 -230.49559082 87.63751892 -230.50878906 86.61618042 C-230.46545999 80.87946214 -229.87193591 77.52789417 -226 73 C-225.32874084 72.19058283 -225.32874084 72.19058283 -224.6439209 71.3648138 C-222.49907066 69.58411911 -221.30470543 69.62960033 -218.53913879 69.63923645 C-217.62628616 69.63511246 -216.71343353 69.63098846 -215.7729187 69.6267395 C-214.2742778 69.64291824 -214.2742778 69.64291824 -212.74536133 69.65942383 C-211.69153763 69.65898575 -210.63771393 69.65854767 -209.55195618 69.65809631 C-206.06179403 69.66018965 -202.57210969 69.68354691 -199.08203125 69.70703125 C-196.66493492 69.71262525 -194.2478352 69.71689627 -191.83073425 69.71989441 C-185.46349729 69.73135853 -179.09646506 69.76083941 -172.72930908 69.79400635 C-166.2342811 69.82467335 -159.73922011 69.83839255 -153.24414062 69.85351562 C-140.49600632 69.88570742 -127.74801404 69.93634762 -115 70 C-115.00598206 69.38942245 -115.01196411 68.77884491 -115.01812744 68.14976501 C-115.02510651 66.94242455 -115.02510651 66.94242455 -115.03222656 65.71069336 C-115.03820862 64.91449081 -115.04419067 64.11828827 -115.050354 63.29795837 C-114.60980884 43.19321267 -101.71490287 25.53135683 -88.171875 11.90625 C-86 10 -86 10 -84 10 C-84 9.34 -84 8.68 -84 8 C-81.50402309 6.55512016 -79.00359387 5.11907628 -76.5 3.6875 C-75.80390625 3.28337891 -75.1078125 2.87925781 -74.390625 2.46289062 C-69.72202874 -0.19561558 -65.08092976 -2.2654039 -60 -4 C-59.154375 -4.31324219 -58.30875 -4.62648438 -57.4375 -4.94921875 C-39.21817559 -10.46757182 -16.94156438 -8.22685914 0 0 Z M-162.484375 132.05078125 C-175.5875382 132.63277454 -188.61422586 136.55364258 -200 143 C-201.53759911 143.77891534 -203.07906299 144.55026717 -204.625 145.3125 C-205.73875 145.869375 -206.8525 146.42625 -208 147 C-208 147.66 -208 148.32 -208 149 C-208.556875 149.226875 -209.11375 149.45375 -209.6875 149.6875 C-212.76445319 151.43387884 -214.7194158 153.28254989 -217 156 C-217.74867015 159.31593203 -217.74867015 159.31593203 -217.62890625 162.96875 C-217.63294968 163.63754181 -217.6369931 164.30633362 -217.64115906 164.99539185 C-217.64361924 167.16483522 -217.60582348 169.33102112 -217.5625 171.5 C-217.55512817 172.2399823 -217.54775635 172.9799646 -217.54016113 173.74237061 C-217.41023905 186.17887618 -216.10247599 197.93093899 -213 210 C-212.66038961 211.41771317 -212.32181294 212.83567444 -211.984375 214.25390625 C-210.40432885 220.68421766 -208.46769324 226.86934508 -205.83203125 232.94921875 C-205.02033143 234.94988733 -204.47028139 236.89560953 -204 239 C-203.34 239 -202.68 239 -202 239 C-201.90589844 239.845625 -201.81179688 240.69125 -201.71484375 241.5625 C-200.91069409 245.42944921 -199.44117794 248.5699415 -197.5625 252 C-197.037771 252.97078491 -197.037771 252.97078491 -196.50244141 253.96118164 C-192.5679165 261.05451877 -187.85399012 267.5170437 -183 274 C-182.19949219 275.12148438 -182.19949219 275.12148438 -181.3828125 276.265625 C-175.01097197 285.12140337 -167.4715748 293.13425562 -159 300 C-158.19949219 300.65355469 -157.39898437 301.30710937 -156.57421875 301.98046875 C-152.71769917 305.55625621 -152.71769917 305.55625621 -148 307 C-148 307.66 -148 308.32 -148 309 C-145.86119921 310.52900225 -143.7332449 311.93414928 -141.5 313.3125 C-140.85796631 313.71549316 -140.21593262 314.11848633 -139.55444336 314.53369141 C-138.27875797 315.33367292 -137.001363 316.13093555 -135.72216797 316.92529297 C-134.3175189 317.80185453 -132.92453761 318.69709052 -131.53515625 319.59765625 C-124.29637266 324.3429742 -124.29637266 324.3429742 -116 326 C-116 326.66 -116 327.32 -116 328 C-113.1078627 329.11470973 -110.21180816 330.21671585 -107.3125 331.3125 C-106.51521484 331.62123047 -105.71792969 331.92996094 -104.89648438 332.24804688 C-84.86255168 339.77066982 -62.34225305 342.34127651 -41.0625 342.4375 C-39.94544678 342.44740967 -38.82839355 342.45731934 -37.67749023 342.4675293 C-30.80550657 342.39615474 -24.58093125 341.41988563 -17.92211914 339.73754883 C-14.35921705 338.83826508 -10.81118574 338.22960195 -7.1875 337.625 C1.13022424 336.14473565 9.00662785 333.69861709 17 331 C18.37671875 330.57460938 18.37671875 330.57460938 19.78125 330.140625 C39.14890624 323.80429302 57.23368496 311.65171602 73 299 C73.67804688 298.47792969 74.35609375 297.95585938 75.0546875 297.41796875 C79.62583774 293.76315508 83.1157465 289.35143334 86.74609375 284.78125 C88.74655726 282.31274043 90.82719177 280.00285827 93 277.6875 C98.12529062 271.99046382 102.01177126 265.51353475 106 259 C106.87205078 257.59427734 106.87205078 257.59427734 107.76171875 256.16015625 C113.09379904 247.44348092 117.1845592 238.47501132 121 229 C121.48726562 227.79150391 121.48726562 227.79150391 121.984375 226.55859375 C123.15420225 223.56229095 124 221.24550504 124 218 C123.44296387 218.14638916 122.88592773 218.29277832 122.31201172 218.44360352 C119.88686031 219.0272276 117.46543523 219.47605892 115.0078125 219.90234375 C114.05519531 220.07056641 113.10257813 220.23878906 112.12109375 220.41210938 C110.13194038 220.76092441 108.14235754 221.10729958 106.15234375 221.45117188 C105.19714844 221.62068359 104.24195313 221.79019531 103.2578125 221.96484375 C101.96061279 222.19095337 101.96061279 222.19095337 100.63720703 222.42163086 C97.92222562 222.95692719 97.92222562 222.95692719 95.10595703 224.04589844 C91.61428433 225.11848584 88.69607466 225.27444834 85.046875 225.30078125 C84.06747955 225.3091803 84.06747955 225.3091803 83.06829834 225.31774902 C80.9619613 225.32961501 78.85633586 225.32340452 76.75 225.3125 C75.66755005 225.30976578 75.66755005 225.30976578 74.56323242 225.30697632 C64.28036238 225.26314591 54.37486433 224.76951714 44.31738281 222.50927734 C41.60276544 221.91270214 38.8778968 221.38770545 36.1484375 220.86328125 C20.16391611 217.74575495 5.2841261 213.98226312 -9.33178711 206.6784668 C-12.88691061 204.91012632 -16.01077507 203.52673261 -20 203 C-20 202.34 -20 201.68 -20 201 C-21.2065625 200.443125 -21.2065625 200.443125 -22.4375 199.875 C-32.88117409 194.60458773 -42.33546677 186.79549189 -51.2421875 179.27734375 C-53.8404683 176.99587935 -53.8404683 176.99587935 -56.4375 175.625 C-59.59555682 173.62232982 -61.90617755 171.14925996 -64.44921875 168.42578125 C-65.8942838 166.77439484 -65.8942838 166.77439484 -68 167 C-68 166.34 -68 165.68 -68 165 C-70.17222846 163.38193386 -70.17222846 163.38193386 -72.9375 161.75 C-76.59911506 159.48619943 -80.23702148 157.21038918 -83.8125 154.8125 C-84.89144531 154.09126953 -84.89144531 154.09126953 -85.9921875 153.35546875 C-87.27332623 152.49057548 -88.54989618 151.61884879 -89.8203125 150.73828125 C-92.64589814 148.6318403 -92.64589814 148.6318403 -96 148 C-96 147.34 -96 146.68 -96 146 C-101.87340643 142.80915901 -107.87799459 140.16680367 -114.125 137.8125 C-114.78113281 137.56290527 -115.43726563 137.31331055 -116.11328125 137.05615234 C-131.36519435 131.41279228 -146.46677655 131.81734091 -162.484375 132.05078125 Z " fill="#0B0B0B" transform="translate(508,339)"/>
<path d="M0 0 C0.94359375 0.44730469 1.8871875 0.89460938 2.859375 1.35546875 C13.3249417 6.8569626 24.48750237 16.03209272 31 26 C31 26.99 31 27.98 31 29 C31.66 29 32.32 29 33 29 C39.30590764 40.50981201 45.15421862 52.29022316 45.03710938 65.73852539 C45.03175171 66.53940079 45.02639404 67.34027618 45.02087402 68.16542053 C45.0139856 68.77083176 45.00709717 69.37624298 45 70 C46.25930328 69.99555878 47.51860657 69.99111755 48.81607056 69.98654175 C60.73177605 69.94585276 72.64746729 69.91594731 84.5632267 69.89637566 C90.68801411 69.88597518 96.81274507 69.87188474 102.9375 69.84912109 C108.85732955 69.82725884 114.77710506 69.81540333 120.69697189 69.81024551 C122.94618962 69.80657365 125.19540467 69.799404 127.44459915 69.78853989 C139.1413236 69.73433138 150.47313673 69.76636454 162 72 C162 72.66 162 73.32 162 74 C162.72960937 74.13148438 163.45921875 74.26296875 164.2109375 74.3984375 C179.64883194 77.72817944 192.7049075 87.75032874 201.16015625 100.7890625 C209.73324647 115.06668044 210.39450406 133.93007194 206.7199707 149.921875 C205.91149972 152.98227683 204.98781574 155.99313231 204 159 C203.76152344 159.79277344 203.52304687 160.58554687 203.27734375 161.40234375 C200.0131665 171.27305938 193.51029023 179.94032719 186 187 C185.34 187 184.68 187 184 187 C184 187.66 184 188.32 184 189 C178.5364794 193.38244099 173.04637399 195.64998285 166.12890625 196.3828125 C164 196 164 196 162.15234375 194.3671875 C161 192 161 192 160.8515625 189.01953125 C162.52269594 184.62570081 165.26337719 183.62485387 169.375 181.6875 C170.06078125 181.34138672 170.7465625 180.99527344 171.453125 180.63867188 C174.26262457 179.23665506 177.01912545 177.99362485 180 177 C181.20882096 174.99983534 181.20882096 174.99983534 182 173 C182.66 173 183.32 173 184 173 C184.3403125 172.0409375 184.3403125 172.0409375 184.6875 171.0625 C185.77619249 168.52221753 186.95123212 166.41062179 188.375 164.0625 C196.01925373 150.22572025 197.59564583 133.547357 193.50830078 118.3059082 C190.1671521 107.45941127 184.03438233 98.800203 174.15625 92.8984375 C172.7965239 92.21216065 171.40175523 91.59574597 170 91 C170 90.34 170 89.68 170 89 C169.236875 88.896875 168.47375 88.79375 167.6875 88.6875 C163.74888398 87.95318176 160.00306496 86.87971666 156.171875 85.71875 C147.02937028 83.64704942 137.67174204 83.85699588 128.34719849 83.87301636 C126.87711418 83.87186249 125.40703017 83.87027318 123.93694675 83.86828911 C119.91969609 83.86413263 115.90246934 83.86616975 111.88521862 83.86927533 C107.54444406 83.87154413 103.20367353 83.86804254 98.86289978 83.86529541 C90.36985804 83.86085524 81.87682514 83.8618062 73.38378306 83.86470805 C66.48331104 83.86696807 59.58284151 83.86727201 52.68236923 83.86618423 C51.69962578 83.866031 50.71688233 83.86587777 49.70435878 83.86571989 C47.70790204 83.86540016 45.71144531 83.86507595 43.71498857 83.8647473 C25.00869321 83.86189788 6.30240275 83.86517158 -12.40389182 83.87054767 C-28.46099543 83.8750194 -44.51809182 83.87423569 -60.57519531 83.86962891 C-79.22468151 83.86428087 -97.87416343 83.86216811 -116.52365029 83.86524117 C-118.5108548 83.86555972 -120.49805931 83.86587409 -122.48526382 83.86618423 C-123.95188345 83.86641565 -123.95188345 83.86641565 -125.44813176 83.86665174 C-132.34481548 83.86751589 -139.24149648 83.86605628 -146.13817978 83.86370468 C-154.53592411 83.86090414 -162.93365909 83.86165052 -171.33140235 83.86698543 C-175.61743659 83.86961834 -179.90345523 83.87063434 -184.18948936 83.86733627 C-188.10973994 83.86436519 -192.02996038 83.86597975 -195.9502082 83.87131383 C-197.37123591 83.87243447 -198.79226614 83.87185459 -200.21329223 83.86943804 C-202.13938483 83.8664128 -204.06548453 83.87010302 -205.99157524 83.87415886 C-207.06304137 83.87432121 -208.1345075 83.87448356 -209.2384423 83.87465084 C-211.70343408 83.98653865 -213.71190253 84.07818883 -216 85 C-216.96380077 87.8914023 -217.15112024 89.82653923 -217.20532227 92.83862305 C-217.22526749 93.8194133 -217.24521271 94.80020355 -217.26576233 95.81071472 C-217.29083107 97.39521172 -217.29083107 97.39521172 -217.31640625 99.01171875 C-217.33718735 100.09508011 -217.35796844 101.17844147 -217.37937927 102.29463196 C-217.44481797 105.75885616 -217.50373353 109.2231568 -217.5625 112.6875 C-217.60569061 115.03451315 -217.64930507 117.38151853 -217.69335938 119.72851562 C-217.80049357 125.48559604 -217.90227064 131.24275267 -218 137 C-218.639375 137.29132813 -219.27875 137.58265625 -219.9375 137.8828125 C-222.49130301 139.26612246 -222.78381683 140.41561077 -224 143 C-226 145.25 -226 145.25 -228 147 C-228.66 147 -229.32 147 -230 147 C-230.09281293 138.23759692 -230.16382186 129.47536389 -230.20724869 120.71257591 C-230.2280949 116.64333061 -230.25635753 112.57442241 -230.30175781 108.50537109 C-230.3453226 104.57609382 -230.36915942 100.64714013 -230.37950897 96.71763992 C-230.38688138 95.22094252 -230.4012782 93.72426218 -230.42292023 92.22770309 C-230.45209757 90.12586398 -230.45595032 88.02534994 -230.45410156 85.92333984 C-230.46298401 84.72865082 -230.47186646 83.53396179 -230.48101807 82.30307007 C-229.74445147 77.24519127 -226.93067033 73.2289098 -223 70 C-220.94418049 69.63085651 -220.94418049 69.63085651 -218.53913879 69.63923645 C-217.62628616 69.63511246 -216.71343353 69.63098846 -215.7729187 69.6267395 C-214.2742778 69.64291824 -214.2742778 69.64291824 -212.74536133 69.65942383 C-211.69153763 69.65898575 -210.63771393 69.65854767 -209.55195618 69.65809631 C-206.06179403 69.66018965 -202.57210969 69.68354691 -199.08203125 69.70703125 C-196.66493492 69.71262525 -194.2478352 69.71689627 -191.83073425 69.71989441 C-185.46349729 69.73135853 -179.09646506 69.76083941 -172.72930908 69.79400635 C-166.2342811 69.82467335 -159.73922011 69.83839255 -153.24414062 69.85351562 C-140.49600632 69.88570742 -127.74801404 69.93634762 -115 70 C-115.00598206 69.38942245 -115.01196411 68.77884491 -115.01812744 68.14976501 C-115.02510651 66.94242455 -115.02510651 66.94242455 -115.03222656 65.71069336 C-115.03820862 64.91449081 -115.04419067 64.11828827 -115.050354 63.29795837 C-114.60980884 43.19321267 -101.71490287 25.53135683 -88.171875 11.90625 C-86 10 -86 10 -84 10 C-84 9.34 -84 8.68 -84 8 C-81.50402309 6.55512016 -79.00359387 5.11907628 -76.5 3.6875 C-75.80390625 3.28337891 -75.1078125 2.87925781 -74.390625 2.46289062 C-69.72202874 -0.19561558 -65.08092976 -2.2654039 -60 -4 C-59.154375 -4.31324219 -58.30875 -4.62648438 -57.4375 -4.94921875 C-39.21817559 -10.46757182 -16.94156438 -8.22685914 0 0 Z " fill="#080808" transform="translate(508,339)"/>
<path d="M0 0 C1.06412109 -0.01611328 2.12824219 -0.03222656 3.22460938 -0.04882812 C13.86388495 -0.05531945 23.23670719 2.48796941 32.6875 7.3125 C33.46609375 7.70953125 34.2446875 8.1065625 35.046875 8.515625 C53.40490539 18.6885463 64.26198569 35.11358686 69.98828125 54.91796875 C70.6875 58.3125 70.6875 58.3125 70.6875 65.3125 C24.4875 65.3125 -21.7125 65.3125 -69.3125 65.3125 C-69.3125 52.17366307 -64.2072804 36.41460516 -55.3125 26.3125 C-54.6525 26.3125 -53.9925 26.3125 -53.3125 26.3125 C-53.05082031 25.72984375 -52.78914063 25.1471875 -52.51953125 24.546875 C-45.72439816 11.96818204 -29.7898951 5.22296391 -16.7890625 1.23046875 C-11.24126103 -0.11617929 -5.6796541 -0.01701514 0 0 Z " fill="#FBFBFB" transform="translate(472.3125,341.6875)"/>
<path d="M0 0 C1.14210938 0.65613281 2.28421875 1.31226563 3.4609375 1.98828125 C14.5733346 8.51661898 26.97108622 16.88568869 34 28 C34 28.66 34 29.32 34 30 C34.66 30 35.32 30 36 30 C36.83848804 31.45537568 37.67063934 32.91440373 38.5 34.375 C38.9640625 35.18710937 39.428125 35.99921875 39.90625 36.8359375 C41 39 41 39 41 41 C13.50905193 50.47576275 -16.49261902 52.37506832 -45 46 C-45.72687012 45.83902832 -46.45374023 45.67805664 -47.20263672 45.51220703 C-68.32986471 40.63019941 -88.15176006 31.53059559 -107 21 C-108.10988281 20.38382813 -109.21976562 19.76765625 -110.36328125 19.1328125 C-111.46027344 18.51148438 -112.55726563 17.89015625 -113.6875 17.25 C-114.70199219 16.67765625 -115.71648437 16.1053125 -116.76171875 15.515625 C-117.50035156 15.01546875 -118.23898437 14.5153125 -119 14 C-119 13.34 -119 12.68 -119 12 C-119.94875 11.773125 -120.8975 11.54625 -121.875 11.3125 C-125 10 -125 10 -126.1953125 7.41796875 C-126.59363281 6.22107422 -126.59363281 6.22107422 -127 5 C-124.83657484 4.03375112 -122.66968741 3.0770057 -120.5 2.125 C-119.2934375 1.59132813 -118.086875 1.05765625 -116.84375 0.5078125 C-113.61330264 -0.83423157 -110.39756334 -1.72008609 -106.99560547 -2.51269531 C-103.71325787 -3.31420813 -100.52413078 -4.39354961 -97.3125 -5.4375 C-67.79022818 -14.80133163 -27.40562302 -17.70219669 0 0 Z " fill="#FBFBFB" transform="translate(593,502)"/>
<path d="M0 0 C0.94359375 0.44730469 1.8871875 0.89460938 2.859375 1.35546875 C13.3249417 6.8569626 24.48750237 16.03209272 31 26 C31 26.99 31 27.98 31 29 C31.66 29 32.32 29 33 29 C34.322644 31.53682516 35.63317361 34.07877651 36.9375 36.625 C37.31068359 37.33785156 37.68386719 38.05070312 38.06835938 38.78515625 C40.14783988 42.86918102 41.53994321 46.3702221 42 51 C40.68 50.67 39.36 50.34 38 50 C37.67 48.68 37.34 47.36 37 46 C34.71271266 47.83883881 34.71271266 47.83883881 34.875 50.625 C34.91625 51.40875 34.9575 52.1925 35 53 C34.01 53 33.02 53 32 53 C31.58041016 51.76636719 31.58041016 51.76636719 31.15234375 50.5078125 C28.36947334 42.75872639 25.14430609 36.42232785 20 30 C19.39285156 29.22914063 18.78570313 28.45828125 18.16015625 27.6640625 C7.8530124 15.31235229 -7.12093111 6.76201847 -23 4 C-43.8984574 2.4548637 -61.8652229 4.71251613 -78.71484375 18.16796875 C-91.48536839 29.32537449 -98.36742123 40.67098123 -103 57 C-103.495 55.515 -103.495 55.515 -104 54 C-104.66 53.67 -105.32 53.34 -106 53 C-105.67 52.34 -105.34 51.68 -105 51 C-105.66 51 -106.32 51 -107 51 C-107 49.35 -107 47.7 -107 46 C-107.99 45.67 -108.98 45.34 -110 45 C-107.0069402 31.23192491 -96.3334413 19.06963913 -86 10 C-85.34 10 -84.68 10 -84 10 C-84 9.34 -84 8.68 -84 8 C-81.50402309 6.55512016 -79.00359387 5.11907628 -76.5 3.6875 C-75.80390625 3.28337891 -75.1078125 2.87925781 -74.390625 2.46289062 C-69.72202874 -0.19561558 -65.08092976 -2.2654039 -60 -4 C-59.154375 -4.31324219 -58.30875 -4.62648438 -57.4375 -4.94921875 C-39.21817559 -10.46757182 -16.94156438 -8.22685914 0 0 Z " fill="#0E0E0E" transform="translate(508,339)"/>
<path d="M0 0 C4.42783712 1.55605131 6.86314883 4.75535705 9.94140625 8.19921875 C10.55306641 8.85986328 11.16472656 9.52050781 11.79492188 10.20117188 C14.46356396 13.12369558 16.97973462 16.01642622 19.13671875 19.33984375 C20.83229812 22.18486996 20.83229812 22.18486996 23.69140625 24.57421875 C24.41328125 25.37859375 25.13515625 26.18296875 25.87890625 27.01171875 C25.69140625 29.82421875 25.69140625 29.82421875 24.87890625 32.01171875 C22.69140625 32.82421875 22.69140625 32.82421875 19.87890625 33.01171875 C16.3591911 30.09293057 13.70517057 26.58611186 10.87890625 23.01171875 C9.80241959 21.75581765 8.71832601 20.50641779 7.62890625 19.26171875 C7.0359375 18.57980469 6.44296875 17.89789063 5.83203125 17.1953125 C4.45747173 15.65855496 3.0475161 14.15309341 1.61328125 12.671875 C0.8759375 11.89714844 0.13859375 11.12242187 -0.62109375 10.32421875 C-1.31203125 9.61910156 -2.00296875 8.91398437 -2.71484375 8.1875 C-4.12109375 6.01171875 -4.12109375 6.01171875 -3.90234375 3.3046875 C-2.78162163 0.01536808 -2.78162163 0.01536808 0 0 Z " fill="#101010" transform="translate(388.12109375,307.98828125)"/>
<path d="M0 0 C3.18359375 1.01171875 3.18359375 1.01171875 5.2734375 4.1171875 C5.91204937 5.46734744 6.52669841 6.82901761 7.12109375 8.19921875 C7.79601738 9.65925092 8.47181636 11.11887873 9.1484375 12.578125 C9.48343262 13.31820801 9.81842773 14.05829102 10.16357422 14.82080078 C11.13550792 16.90843435 12.17029133 18.94293147 13.25 20.9765625 C13.57556885 21.59442627 13.9011377 22.21229004 14.23657227 22.84887695 C15.13355482 24.54225237 16.03348769 26.23406405 16.93359375 27.92578125 C18.2624579 31.20641462 18.43607564 33.50853253 18.18359375 37.01171875 C15.87359375 37.01171875 13.56359375 37.01171875 11.18359375 37.01171875 C10.78269531 36.19832031 10.38179688 35.38492188 9.96875 34.546875 C9.40027344 33.40089844 8.83179688 32.25492187 8.24609375 31.07421875 C7.94123047 30.45683838 7.63636719 29.83945801 7.32226562 29.20336914 C5.51820342 25.58039092 3.64745729 22.00966018 1.6796875 18.47265625 C1.26517334 17.71976318 0.85065918 16.96687012 0.42358398 16.19116211 C-0.3919497 14.71665022 -1.21899113 13.24843457 -2.05834961 11.78735352 C-4.85988337 6.69195457 -4.85988337 6.69195457 -4.62890625 3.078125 C-3.42420593 0.01424774 -3.42420593 0.01424774 0 0 Z " fill="#161616" transform="translate(416.81640625,286.98828125)"/>
<path d="M0 0 C7.93268824 0.08760679 15.75368925 2.09814585 23.4375 3.875 C24.60732422 4.13152344 25.77714844 4.38804687 26.98242188 4.65234375 C28.10068359 4.90886719 29.21894531 5.16539062 30.37109375 5.4296875 C31.38099365 5.65897949 32.39089355 5.88827148 33.43139648 6.12451172 C36.09050157 7.03084675 37.33817099 7.75590608 39 10 C38.8125 12.125 38.8125 12.125 38 14 C31.20656355 17.39671822 19.36429078 12.64351387 12.4375 11 C11.25091797 10.72671875 10.06433594 10.4534375 8.84179688 10.171875 C0.13647625 8.13647625 0.13647625 8.13647625 -1 7 C-1.125 4 -1.125 4 -1 1 C-0.67 0.67 -0.34 0.34 0 0 Z " fill="#141414" transform="translate(346,371)"/>
<path d="M0 0 C1 1 1 1 1.0625 3.5625 C1.041875 4.366875 1.02125 5.17125 1 6 C-5.13658342 9.0378264 -11.20426062 10.12522712 -17.9375 11.1875 C-18.98357422 11.36474609 -20.02964844 11.54199219 -21.10742188 11.72460938 C-26.80467128 12.65206858 -32.22698159 13.3067129 -38 13 C-39 12 -39 12 -39.25 9.5625 C-39.1675 8.716875 -39.085 7.87125 -39 7 C-35.44311368 4.62874245 -32.18993279 4.16148797 -28.0625 3.5 C-27.30340332 3.37326904 -26.54430664 3.24653809 -25.76220703 3.1159668 C-24.22782698 2.86023679 -22.69299586 2.60719781 -21.15771484 2.35693359 C-19.25469846 2.04213274 -17.35549577 1.70446065 -15.45703125 1.36328125 C-10.23886515 0.43075727 -5.3041789 -0.35361193 0 0 Z " fill="#121212" transform="translate(606,375)"/>
<path d="M0 0 C5.0764052 0.12691013 8.96300839 2.3774774 13.35546875 4.67578125 C15.88772943 5.9437818 18.4176105 6.99222717 21.0625 8 C24.47359036 9.34392642 27.79251828 10.77663903 31.0625 12.4375 C31.79597656 12.80746094 32.52945313 13.17742187 33.28515625 13.55859375 C35 15 35 15 35.87109375 17.53515625 C35.91363281 18.34855469 35.95617187 19.16195313 36 20 C35.34 20.66 34.68 21.32 34 22 C30.73763536 21.78250902 28.48963828 21.29725089 25.68359375 19.59375 C22.81285292 17.88885588 20.01651467 16.8105722 16.875 15.6875 C3.60185263 10.65337919 3.60185263 10.65337919 -1 7 C-1.921875 4.4375 -1.921875 4.4375 -2 2 C-1.34 1.34 -0.68 0.68 0 0 Z " fill="#1A1A1A" transform="translate(360,338)"/>
<path d="M0 0 C1.0198361 2.81954685 1.47384131 4.10371153 1 7 C-1.62457331 10.39436733 -4.83668738 13.1160967 -8 16 C-9.23204979 17.33262528 -10.44254986 18.68567449 -11.625 20.0625 C-12.181875 20.70316406 -12.73875 21.34382813 -13.3125 22.00390625 C-14.50123313 23.41002344 -15.66589163 24.83666987 -16.8125 26.27734375 C-17.410625 27.01082031 -18.00875 27.74429687 -18.625 28.5 C-19.15351562 29.1703125 -19.68203125 29.840625 -20.2265625 30.53125 C-22 32 -22 32 -24.5859375 32.34375 C-27 32 -27 32 -29 30 C-28.90398751 26.46554035 -28.07732263 25.08953853 -25.75 22.39453125 C-24.8425 21.54246094 -23.935 20.69039063 -23 19.8125 C-19.55497294 16.74012047 -19.55497294 16.74012047 -17 13 C-16.34 13 -15.68 13 -15 13 C-14.7421875 12.42636719 -14.484375 11.85273438 -14.21875 11.26171875 C-12.8894836 8.79490707 -11.35595983 6.90831904 -9.5 4.8125 C-8.8915625 4.11769531 -8.283125 3.42289062 -7.65625 2.70703125 C-4.94053816 -0.09194534 -4.09096059 0 0 0 Z " fill="#0A0A0A" transform="translate(561,309)"/>
<path d="M0 0 C2.375 -0.125 2.375 -0.125 5 0 C7.37684137 2.37684137 7.45296668 3.46695213 8 6.7265625 C8.165 7.67660156 8.33 8.62664062 8.5 9.60546875 C8.665 10.60191406 8.83 11.59835937 9 12.625 C10.32238316 20.57648414 10.32238316 20.57648414 12.1171875 28.4296875 C13.13378516 32.54106034 13.14990041 35.80278851 13 40 C10.03 40.495 10.03 40.495 7 41 C0.63051995 31.44577992 -0.70186401 13.51263581 -1 2 C-0.67 1.34 -0.34 0.68 0 0 Z " fill="#111111" transform="translate(449,276)"/>
<path d="M0 0 C0.495 3.465 0.495 3.465 1 7 C-3.62182757 10.19070329 -8.24952127 13.37257875 -12.88330078 16.54589844 C-14.7801608 17.84897782 -16.6701628 19.16131824 -18.55859375 20.4765625 C-19.59113281 21.18554688 -20.62367188 21.89453125 -21.6875 22.625 C-23.05455078 23.57246094 -23.05455078 23.57246094 -24.44921875 24.5390625 C-27.02880743 26.0164992 -29.07136618 26.60951549 -32 27 C-32.33 24.69 -32.66 22.38 -33 20 C-19.89333562 10.61381527 -19.89333562 10.61381527 -13.4375 6.0625 C-12.69371094 5.53785156 -11.94992187 5.01320313 -11.18359375 4.47265625 C-4.55172414 0 -4.55172414 0 0 0 Z " fill="#141414" transform="translate(584,338)"/>
<path d="M0 0 C2.37890625 0.30078125 2.37890625 0.30078125 3.37890625 1.30078125 C3.00724609 6.65666957 1.60812065 10.27668483 -1.12109375 14.86328125 C-1.46914063 15.45318848 -1.8171875 16.0430957 -2.17578125 16.65087891 C-6.14431773 23.31260216 -10.36601122 29.81966018 -14.62109375 36.30078125 C-16.27109375 35.97078125 -17.92109375 35.64078125 -19.62109375 35.30078125 C-20.49482465 32.37455823 -20.86463647 30.85609656 -19.6171875 28.01171875 C-19.10285156 27.24085938 -18.58851563 26.47 -18.05859375 25.67578125 C-15.75283198 22.0919991 -13.61341617 18.50625443 -11.62109375 14.73828125 C-9.66613251 11.15503638 -7.69173758 7.59396095 -5.55859375 4.11328125 C-5.11386719 3.37722656 -4.66914062 2.64117187 -4.2109375 1.8828125 C-2.62109375 0.30078125 -2.62109375 0.30078125 0 0 Z " fill="#121212" transform="translate(525.62109375,284.69921875)"/>
<path d="M0 0 C1.65 0.33 3.3 0.66 5 1 C5.21140253 10.17252092 5.06742245 19.23632648 4.1875 28.375 C4.11740723 29.18880127 4.04731445 30.00260254 3.97509766 30.84106445 C3.37102408 36.53876841 3.37102408 36.53876841 1.5871582 38.75634766 C0 40 0 40 -2.125 39.75 C-4 39 -4 39 -5 38 C-5.58693952 30.17868965 -4.88976052 22.29161242 -4.1875 14.5 C-4.11748779 13.63979248 -4.04747559 12.77958496 -3.9753418 11.89331055 C-3.51425283 7.21024639 -2.90059825 3.87806012 0 0 Z " fill="#101010" transform="translate(486,275)"/>
<path d="M0 0 C1 1 1 1 1.0625 4.5625 C1.041875 5.696875 1.02125 6.83125 1 8 C-5.32448699 9.06965872 -11.64416673 10.13329546 -18 11 C-18.87890625 4.84765625 -18.87890625 4.84765625 -19 3 C-15.02422512 -0.97577488 -5.21593613 -0.50063673 0 0 Z " fill="#131313" transform="translate(635,370)"/>
<path d="M0 0 C4.92611873 0.04105099 9.43736812 1.68657514 14.0625 3.25 C14.86203138 6.53696233 15.15908936 7.96023192 14.0625 11.25 C7.8570858 10.76679152 2.06304754 9.91681876 -3.9375 8.25 C-3.97991723 5.91705225 -3.97842937 3.58297433 -3.9375 1.25 C-2.9375 0.25 -2.9375 0.25 0 0 Z " fill="#131313" transform="translate(319.9375,363.75)"/>
<path d="M0 0 C5.95922592 0.38037612 11.37530719 2.07000353 16 6 C16.8828125 8.546875 16.8828125 8.546875 17 11 C16.34 11.66 15.68 12.32 15 13 C10.51786258 12.70119084 7.73869023 11.37087673 4 9 C1.69064697 7.93568947 -0.65063994 6.97520606 -3 6 C-3.66 5.67 -4.32 5.34 -5 5 C-5 4.01 -5 3.02 -5 2 C-3.35 1.67 -1.7 1.34 0 1 C0 0.67 0 0.34 0 0 Z " fill="#101010" transform="translate(379,347)"/>
<path d="M0 0 C3.51168885 5.26753328 4.47154121 11.71278389 4 18 C3 19 3 19 -0.5625 19.0625 C-1.696875 19.041875 -2.83125 19.02125 -4 19 C-4.50690584 16.93918639 -5.00524619 14.87626474 -5.5 12.8125 C-5.7784375 11.66394531 -6.056875 10.51539063 -6.34375 9.33203125 C-6.91495385 6.43181171 -7.13283779 3.93903615 -7 1 C-4.46578263 -0.26710868 -2.80561762 -0.28056176 0 0 Z " fill="#151515" transform="translate(449,247)"/>
<path d="M0 0 C3.68227364 1.31271387 4.29462249 3.20390974 5.9609375 6.671875 C6.48429687 7.71859375 7.00765625 8.7653125 7.546875 9.84375 C8.65200117 13.11758242 8.6084822 14.67379182 7.5859375 17.921875 C5.6059375 18.251875 3.6259375 18.581875 1.5859375 18.921875 C0.38022843 16.8682608 -0.80312891 14.80632345 -1.9765625 12.734375 C-2.31880859 12.15623047 -2.66105469 11.57808594 -3.01367188 10.98242188 C-4.58879643 8.1662901 -5.43598374 6.31378393 -5.25390625 3.05859375 C-4.0764409 0.06290283 -3.15362743 -0.10205914 0 0 Z " fill="#141414" transform="translate(404.4140625,260.078125)"/>
<path d="M0 0 C0.33 2.31 0.66 4.62 1 7 C-0.43648264 8.12629875 -1.87422585 9.2509899 -3.3125 10.375 C-4.11300781 11.00148438 -4.91351562 11.62796875 -5.73828125 12.2734375 C-7.44663212 13.57756718 -9.21172726 14.80781817 -11 16 C-14.51724138 15.48275862 -14.51724138 15.48275862 -16 14 C-16.421875 11.2109375 -16.421875 11.2109375 -16 8 C-13.515625 5.6640625 -13.515625 5.6640625 -10.25 3.625 C-9.18265625 2.93664062 -8.1153125 2.24828125 -7.015625 1.5390625 C-4 0 -4 0 0 0 Z " fill="#111111" transform="translate(608,321)"/>
<path d="M0 0 C4.70588235 0.70588235 4.70588235 0.70588235 6 2 C6.3046875 4.3046875 6.3046875 4.3046875 6 7 C4.3203125 9.1328125 4.3203125 9.1328125 2.125 11.125 C-0.33274807 13.38894715 -2.13099942 15.19649913 -4 18 C-5.65 17.67 -7.3 17.34 -9 17 C-9.7734375 14.859375 -9.7734375 14.859375 -10 12 C-8.1640625 9.140625 -8.1640625 9.140625 -5.625 6.25 C-4.79226563 5.28578125 -3.95953125 4.3215625 -3.1015625 3.328125 C-1 1 -1 1 0 0 Z " fill="#101010" transform="translate(577,287)"/>
<path d="M0 0 C2.31 0.33 4.62 0.66 7 1 C7.11269443 7.1105424 6.89604368 12.95170514 6 19 C3.36 19 0.72 19 -2 19 C-2.19818283 12.29481414 -2.30844801 6.34823202 0 0 Z " fill="#101010" transform="translate(488,245)"/>
<path d="M0 0 C6.22144658 0.77768082 11.78150204 2.52100136 17 6 C16.67 8.31 16.34 10.62 16 13 C11.3595511 13.41947561 8.33054173 12.0087475 4.1875 10 C3.02605469 9.443125 1.86460937 8.88625 0.66796875 8.3125 C-0.65267578 7.6628125 -0.65267578 7.6628125 -2 7 C-1.125 2.25 -1.125 2.25 0 0 Z " fill="#141414" transform="translate(334,325)"/>
<path d="M0 0 C3.5610865 1.48845413 5.6420874 3.5000687 8.1875 6.375 C8.88230469 7.14585937 9.57710938 7.91671875 10.29296875 8.7109375 C11.9450483 10.92631191 12.71960001 12.27194174 13 15 C11.8125 16.8125 11.8125 16.8125 10 18 C5.62945466 17.7699713 3.4931834 14.75304409 0.6875 11.6875 C0.22021484 11.20087891 -0.24707031 10.71425781 -0.72851562 10.21289062 C-4.00539884 6.6165476 -4.00539884 6.6165476 -3.98046875 3.76953125 C-3 2 -3 2 0 0 Z " fill="#141414" transform="translate(368,285)"/>
<path d="M0 0 C2.97 0.495 2.97 0.495 6 1 C6.7265625 2.578125 6.7265625 2.578125 7 5 C5.89106192 7.42910245 4.77952515 9.50768793 3.375 11.75 C2.85873047 12.65298828 2.85873047 12.65298828 2.33203125 13.57421875 C1.2734375 15.296875 1.2734375 15.296875 -1 18 C-3.6484375 18.515625 -3.6484375 18.515625 -6 18 C-6.66 17.34 -7.32 16.68 -8 16 C-7.6602029 12.1315407 -5.38968834 9.01547869 -3.4375 5.75 C-2.79683594 4.67234375 -2.15617188 3.5946875 -1.49609375 2.484375 C-1.00238281 1.66453125 -0.50867188 0.8446875 0 0 Z " fill="#111111" transform="translate(538,259)"/>
<path d="M0 0 C1.35921586 1.30693833 2.68409365 2.64946454 4 4 C4.54011719 4.54398437 5.08023437 5.08796875 5.63671875 5.6484375 C7.25415355 7.37520938 8.71678904 9.010801 10 11 C9.875 13.9375 9.875 13.9375 9 16 C6.8125 16.8125 6.8125 16.8125 4 17 C1.375 14.75 1.375 14.75 -1 12 C-1.61875 11.505 -2.2375 11.01 -2.875 10.5 C-4 9 -4 9 -3.875 6.4375 C-3 4 -3 4 0 2 C0 1.34 0 0.68 0 0 Z " fill="#1E1E1E" transform="translate(404,324)"/>
<path d="M0 0 C4.43951284 0.22298923 6.79673813 3.58875758 9.625 6.625 C14.04920815 11.22898204 18.51575688 15.00849086 23.86328125 18.5390625 C26.65009671 20.44449026 28.80527797 22.43949097 31 25 C31 25.66 31 26.32 31 27 C21.59685852 23.79635143 13.57537586 15.68974877 6.3125 9.0625 C5.80775146 8.60238525 5.30300293 8.14227051 4.78295898 7.66821289 C2.49956469 5.54424389 0.74149154 3.61223731 -1 1 C-0.67 0.67 -0.34 0.34 0 0 Z " fill="#393939" transform="translate(325,634)"/>
<path d="M0 0 C5.75 -0.125 5.75 -0.125 8 1 C8 1.66 8 2.32 8 3 C10.97 3.495 10.97 3.495 14 4 C14 4.66 14 5.32 14 6 C15.134375 6.2475 16.26875 6.495 17.4375 6.75 C22.22541608 7.93199002 26.56069233 9.88310791 31 12 C31 12.66 31 13.32 31 14 C33.64 14.33 36.28 14.66 39 15 C39 15.66 39 16.32 39 17 C41.31 16.67 43.62 16.34 46 16 C46 16.66 46 17.32 46 18 C46.66 18.66 47.32 19.32 48 20 C35.89494186 18.22206959 24.70009388 14.29353358 13.953125 8.55078125 C11.34130099 7.17922816 8.75837532 6.0369448 6 5 C6 4.34 6 3.68 6 3 C4.02 2.34 2.04 1.68 0 1 C0 0.67 0 0.34 0 0 Z " fill="#454545" transform="translate(482,537)"/>
<path d="M0 0 C0.33 0 0.66 0 1 0 C1.33 16.5 1.66 33 2 50 C2.66 50 3.32 50 4 50 C4 50.66 4 51.32 4 52 C2.906875 52.433125 1.81375 52.86625 0.6875 53.3125 C-3.41081558 55.0889876 -5.34663543 56.52133281 -7.1875 60.6875 C-7.455625 61.450625 -7.72375 62.21375 -8 63 C-8.66 63 -9.32 63 -10 63 C-10.33 63.99 -10.66 64.98 -11 66 C-10.78638147 59.91187186 -9.70981893 56.91764357 -5.5703125 52.4453125 C-4 51 -4 51 -1 49 C-0.52427183 46.82584957 -0.52427183 46.82584957 -0.56762695 44.27490234 C-0.54783279 43.29403656 -0.52803864 42.31317078 -0.50764465 41.30258179 C-0.49805977 39.71034286 -0.49805977 39.71034286 -0.48828125 38.0859375 C-0.47033005 37.00116119 -0.45237885 35.91638489 -0.43388367 34.79873657 C-0.3795769 31.32419761 -0.34581932 27.84979758 -0.3125 24.375 C-0.27934496 22.02341808 -0.24485702 19.67185454 -0.20898438 17.3203125 C-0.12383894 11.54699959 -0.05557568 5.77366913 0 0 Z " fill="#3B3B3B" transform="translate(290,427)"/>
<path d="M0 0 C0.99 0.33 1.98 0.66 3 1 C4.61729417 4.67566856 4.06546005 9.07239675 4 13 C2.02 13.33 0.04 13.66 -2 14 C-4.56616632 10.15075052 -4.55097676 7.5650696 -5 3 C-2.6875 1.4375 -2.6875 1.4375 0 0 Z " fill="#191919" transform="translate(458,303)"/>
<path d="M0 0 C0 0.33 0 0.66 0 1 C-0.91700684 1.04487549 -1.83401367 1.08975098 -2.77880859 1.13598633 C-6.22737833 1.31069936 -9.67498904 1.49657615 -13.12255859 1.68969727 C-14.60605012 1.77057698 -16.08978176 1.8471835 -17.57373047 1.91918945 C-25.32541959 2.29814931 -32.66889394 2.68212456 -40.00634766 5.4831543 C-42.35509985 6.09205809 -43.72701011 5.76586404 -46 5 C-44 2 -44 2 -42.296875 1.34765625 C-28.38323296 -0.75832018 -14.02174641 -0.114155 0 0 Z " fill="#787878" transform="translate(368,470)"/>
<path d="M0 0 C1.65 0 3.3 0 5 0 C5.79953138 3.28696233 6.09658936 4.71023192 5 8 C-1.2054142 7.51679152 -6.99945246 6.66681876 -13 5 C-9.90279155 4.12159004 -8.09354597 4.00564594 -5 5 C-5 4.34 -5 3.68 -5 3 C-4.34 3.33 -3.68 3.66 -3 4 C-3.33 4.66 -3.66 5.32 -4 6 C-1.2160817 4.60804085 -1.02101003 2.84424221 0 0 Z " fill="#262626" transform="translate(329,367)"/>
<path d="M0 0 C4.75 0.75 4.75 0.75 7 3 C6.625 5.625 6.625 5.625 6 8 C2.44706507 9.14947895 1.20023331 9.0868937 -2.3125 7.5625 C-3.199375 7.046875 -4.08625 6.53125 -5 6 C-4.360625 5.38125 -3.72125 4.7625 -3.0625 4.125 C-0.96116416 2.17402388 -0.96116416 2.17402388 0 0 Z " fill="#131313" transform="translate(389,351)"/>
<path d="M0 0 C0.33 0.99 0.66 1.98 1 3 C0.01 3.66 -0.98 4.32 -2 5 C-1.34 3.35 -0.68 1.7 0 0 Z M-4 5 C-3.34 5.33 -2.68 5.66 -2 6 C-3.32 7.65 -4.64 9.3 -6 11 C-5.67 11.66 -5.34 12.32 -5 13 C-5.7425 13.391875 -6.485 13.78375 -7.25 14.1875 C-10.07558558 15.84207587 -10.07558558 15.84207587 -11.84375 18.34375 C-14.0955804 21.11774398 -16.43281445 23.12547437 -19.25 25.3125 C-20.14203125 26.00988281 -21.0340625 26.70726562 -21.953125 27.42578125 C-22.62859375 27.94527344 -23.3040625 28.46476563 -24 29 C-24.66 28.67 -25.32 28.34 -26 28 C-24.68 27.34 -23.36 26.68 -22 26 C-22 25.34 -22 24.68 -22 24 C-20.50390625 22.5625 -20.50390625 22.5625 -18.5625 21 C-15.84811762 18.85474956 -15.84811762 18.85474956 -14 16 C-13.34 16 -12.68 16 -12 16 C-11.67 15.01 -11.34 14.02 -11 13 C-10.34 13 -9.68 13 -9 13 C-8.731875 12.4225 -8.46375 11.845 -8.1875 11.25 C-6.98280141 8.9674132 -5.59201885 7.0262058 -4 5 Z " fill="#CBCBCB" transform="translate(614,619)"/>
<path d="M0 0 C2.31 0.66 4.62 1.32 7 2 C7.33 1.34 7.66 0.68 8 0 C9.9375 0.75 9.9375 0.75 12 2 C12.75 4.125 12.75 4.125 13 6 C12.01 6.33 11.02 6.66 10 7 C8.33289654 8.49985609 8.33289654 8.49985609 7 10 C5.82739389 8.71372289 4.6620717 7.42080217 3.5 6.125 C2.8503125 5.40570313 2.200625 4.68640625 1.53125 3.9453125 C0 2 0 2 0 0 Z " fill="#0E0E0E" transform="translate(392,321)"/>
<path d="M0 0 C1.65 0.33 3.3 0.66 5 1 C5.4375 3.0625 5.4375 3.0625 5 6 C2.87919817 8.57260172 0.49372439 10.79254499 -2 13 C-2.66 12.67 -3.32 12.34 -4 12 C-3.67 11.01 -3.34 10.02 -3 9 C-2.34 9 -1.68 9 -1 9 C-1.33 8.01 -1.66 7.02 -2 6 C-1.0625 2.8125 -1.0625 2.8125 0 0 Z " fill="#0A0A0A" transform="translate(556,311)"/>
<path d="M0 0 C3.69459731 0.19970796 4.78742451 0.76444338 7.3125 3.5625 C8.1478125 4.7690625 8.1478125 4.7690625 9 6 C8.01 6 7.02 6 6 6 C5.01 7.485 5.01 7.485 4 9 C2 8 0 7 -2 6 C-1.125 1.125 -1.125 1.125 0 0 Z " fill="#1F1F1F" transform="translate(386,308)"/>
<path d="M0 0 C2.69082872 0.17635452 5.32851446 0.61835921 8 1 C7.01 2.98 6.02 4.96 5 7 C3.35 6.67 1.7 6.34 0 6 C-0.38218767 4.34385343 -0.71395102 2.67542976 -1 1 C-0.67 0.67 -0.34 0.34 0 0 Z " fill="#0B0B0B" transform="translate(346,371)"/>
<path d="M0 0 C2.125 0.9375 2.125 0.9375 4 2 C3.67 4.31 3.34 6.62 3 9 C2.01 9.33 1.02 9.66 0 10 C-0.33 8.68 -0.66 7.36 -1 6 C-1.66 6 -2.32 6 -3 6 C-2.625 3.5625 -2.625 3.5625 -2 1 C-1.34 0.67 -0.68 0.34 0 0 Z " fill="#070707" transform="translate(428,347)"/>
<path d="M0 0 C4.84146109 1.46710942 8.55948972 4.3512744 12 8 C12 8.66 12 9.32 12 10 C6.91061189 8.40956621 3.12543357 5.2553049 -1 2 C-0.67 1.34 -0.34 0.68 0 0 Z " fill="#5D5D5D" transform="translate(344,651)"/>
<path d="M0 0 C2 3.75 2 3.75 2 6 C1.34 6 0.68 6 0 6 C-0.04125 6.763125 -0.0825 7.52625 -0.125 8.3125 C-1 11 -1 11 -4.0625 12.8125 C-5.031875 13.204375 -6.00125 13.59625 -7 14 C-5.23570801 9.02790438 -2.6060834 4.56561939 0 0 Z " fill="#DCDCDC" transform="translate(525,296)"/>
<path d="M0 0 C3.96 1.98 7.92 3.96 12 6 C11.01 6.66 10.02 7.32 9 8 C7.31923769 7.36971413 5.65204456 6.70211894 4 6 C3.01 6.33 2.02 6.66 1 7 C0.67 4.69 0.34 2.38 0 0 Z " fill="#151515" transform="translate(591,488)"/>
<path d="M0 0 C1.134375 0.020625 2.26875 0.04125 3.4375 0.0625 C3.4375 0.3925 3.4375 0.7225 3.4375 1.0625 C1.4575 1.3925 -0.5225 1.7225 -2.5625 2.0625 C-2.5625 2.7225 -2.5625 3.3825 -2.5625 4.0625 C-0.9125 4.0625 0.7375 4.0625 2.4375 4.0625 C2.7675 5.3825 3.0975 6.7025 3.4375 8.0625 C1.1275 8.3925 -1.1825 8.7225 -3.5625 9.0625 C-4.44140625 2.91015625 -4.44140625 2.91015625 -4.5625 1.0625 C-3.5625 0.0625 -3.5625 0.0625 0 0 Z " fill="#2A2A2A" transform="translate(620.5625,371.9375)"/>
<path d="M0 0 C0.66 0.66 1.32 1.32 2 2 C-0.97 6.95 -0.97 6.95 -4 12 C-6.29013653 8.5647952 -6.17842973 7.014669 -6 3 C-5.38125 2.87625 -4.7625 2.7525 -4.125 2.625 C-1.80879168 2.12802644 -1.80879168 2.12802644 0 0 Z " fill="#EAEAEA" transform="translate(407,362)"/>
<path d="M0 0 C1 3.875 1 3.875 1 5 C2.65 5.33 4.3 5.66 6 6 C5.01 7.485 5.01 7.485 4 9 C1.5 9.3125 1.5 9.3125 -1 9 C-1.66 8.34 -2.32 7.68 -3 7 C-2.67028521 3.70285207 -2.3773161 2.3773161 0 0 Z " fill="#303030" transform="translate(535,332)"/>
<path d="M0 0 C1.32 0.66 2.64 1.32 4 2 C0 8.57142857 0 8.57142857 -4 10 C-4.66 9.34 -5.32 8.68 -6 8 C-5.34 8 -4.68 8 -4 8 C-3.71125 7.236875 -3.4225 6.47375 -3.125 5.6875 C-2 3 -2 3 0 0 Z " fill="#EBEBEB" transform="translate(692,504)"/>
<path d="M0 0 C3.71045247 1.57780923 6.29906384 3.90703248 9.25 6.625 C10.14203125 7.44226563 11.0340625 8.25953125 11.953125 9.1015625 C12.96632813 10.04128906 12.96632813 10.04128906 14 11 C13.67 11.66 13.34 12.32 13 13 C8.43716046 11.64348014 7.30908126 10.04089221 5 6 C3.34466005 4.65263027 1.67987227 3.31665664 0 2 C0 1.34 0 0.68 0 0 Z " fill="#484848" transform="translate(331,639)"/>
<path d="M0 0 C0.33 2.31 0.66 4.62 1 7 C0.67 5.68 0.34 4.36 0 3 C-0.99 3.33 -1.98 3.66 -3 4 C-3 3.34 -3 2.68 -3 2 C-3.66 2 -4.32 2 -5 2 C-5.2475 2.5775 -5.495 3.155 -5.75 3.75 C-7.16683317 6.3002997 -8.87627537 8.01785701 -11 10 C-11.66 9.67 -12.32 9.34 -13 9 C-11.87895467 7.68412059 -10.75303035 6.37239647 -9.625 5.0625 C-8.99851562 4.33160156 -8.37203125 3.60070312 -7.7265625 2.84765625 C-4.98726225 -0.08376687 -4.19520543 0 0 0 Z " fill="#343434" transform="translate(561,309)"/>
<path d="M0 0 C4.55555556 0.55555556 4.55555556 0.55555556 6 2 C6.25 4.4375 6.25 4.4375 6 7 C5.01 7.66 4.02 8.32 3 9 C2.9175 8.21625 2.835 7.4325 2.75 6.625 C2.27193661 3.85250896 2.27193661 3.85250896 -0.0625 2.6875 C-0.701875 2.460625 -1.34125 2.23375 -2 2 C-1.34 1.34 -0.68 0.68 0 0 Z " fill="#222222" transform="translate(577,287)"/>
<path d="M0 0 C-0.639375 0.103125 -1.27875 0.20625 -1.9375 0.3125 C-2.618125 0.539375 -3.29875 0.76625 -4 1 C-4.33 1.99 -4.66 2.98 -5 4 C-12.625 5.25 -12.625 5.25 -16 3 C-13.71068726 2.30364247 -11.4191243 1.61765623 -9.125 0.9375 C-8.47402344 0.73833984 -7.82304687 0.53917969 -7.15234375 0.33398438 C-2.2265625 -1.11328125 -2.2265625 -1.11328125 0 0 Z " fill="#5A5A5A" transform="translate(517,673)"/>
<path d="M0 0 C0.66 0.33 1.32 0.66 2 1 C-0.25283313 4.31996462 -2.80800833 6.58443874 -6 9 C-7.32 8.34 -8.64 7.68 -10 7 C-6.7 4.69 -3.4 2.38 0 0 Z " fill="#E1E1E1" transform="translate(576,350)"/>
<path d="M0 0 C0.53625 0.37125 1.0725 0.7425 1.625 1.125 C0.965 1.125 0.305 1.125 -0.375 1.125 C-0.375 1.785 -0.375 2.445 -0.375 3.125 C-4.39304691 3.96598656 -7.39303543 4.17904945 -11.375 3.125 C-4.30720339 -1.58686441 -4.30720339 -1.58686441 0 0 Z " fill="#181818" transform="translate(536.375,666.875)"/>
<path d="M0 0 C1.98 0 3.96 0 6 0 C6 0.66 6 1.32 6 2 C8.64 1.67 11.28 1.34 14 1 C14.33 2.32 14.66 3.64 15 5 C10.05 4.01 5.1 3.02 0 2 C0 1.34 0 0.68 0 0 Z " fill="#303030" transform="translate(560,490)"/>
<path d="M0 0 C0.66 1.32 1.32 2.64 2 4 C1.01 4.33 0.02 4.66 -1 5 C-0.67 5.66 -0.34 6.32 0 7 C-0.66 7 -1.32 7 -2 7 C-2.33 7.66 -2.66 8.32 -3 9 C-4.32 8.67 -5.64 8.34 -7 8 C-4.69 5.36 -2.38 2.72 0 0 Z " fill="#2F2F2F" transform="translate(598,619)"/>
<path d="M0 0 C2.75 -0.3125 2.75 -0.3125 6 0 C8.375 2.5 8.375 2.5 10 5 C9.67 5.66 9.34 6.32 9 7 C2.25 3.375 2.25 3.375 0 0 Z " fill="#4B4B4B" transform="translate(472,530)"/>
<path d="M0 0 C1.65 0 3.3 0 5 0 C5 1.98 5 3.96 5 6 C5.99 6.33 6.98 6.66 8 7 C8 8.65 8 10.3 8 12 C3.57142857 6.85714286 3.57142857 6.85714286 3 3 C2.34 3 1.68 3 1 3 C0.67 2.01 0.34 1.02 0 0 Z " fill="#1C1C1C" transform="translate(626,529)"/>
<path d="M0 0 C0.66 0.66 1.32 1.32 2 2 C1.2884375 3.175625 1.2884375 3.175625 0.5625 4.375 C-0.33898023 5.88948678 -1.21179485 7.4235897 -2 9 C-2.66 9 -3.32 9 -4 9 C-4.33 9.99 -4.66 10.98 -5 12 C-4.50769231 4.61538462 -4.50769231 4.61538462 -1.9375 1.5 C-1.298125 1.005 -0.65875 0.51 0 0 Z " fill="#2C2C2C" transform="translate(284,481)"/>
<path d="M0 0 C0.33 1.32 0.66 2.64 1 4 C0.01 4.495 0.01 4.495 -1 5 C-1 4.34 -1 3.68 -1 3 C-1.99 3.33 -2.98 3.66 -4 4 C-4.66 4 -5.32 4 -6 4 C-7.62514468 5.45833358 -7.62514468 5.45833358 -9 7 C-9.33 6.01 -9.66 5.02 -10 4 C-4.5 0 -4.5 0 0 0 Z " fill="#222222" transform="translate(608,321)"/>
<path d="M0 0 C1.65 1.65 3.3 3.3 5 5 C4.67 5.99 4.34 6.98 4 8 C1.69 6.02 -0.62 4.04 -3 2 C-2.01 1.34 -1.02 0.68 0 0 Z " fill="#E1E1E1" transform="translate(331,616)"/>
<path d="M0 0 C2 2 2 2 2.125 4.625 C2.08375 5.40875 2.0425 6.1925 2 7 C0.02 7.99 -1.96 8.98 -4 10 C-2.8905928 6.51329166 -1.73662334 3.22515763 0 0 Z " fill="#232323" transform="translate(621,584)"/>
<path d="M0 0 C0.33 0 0.66 0 1 0 C0.67 2.31 0.34 4.62 0 7 C-1.65 7 -3.3 7 -5 7 C-5 5.68 -5 4.36 -5 3 C-4.360625 2.87625 -3.72125 2.7525 -3.0625 2.625 C-2.0415625 2.315625 -2.0415625 2.315625 -1 2 C-0.67 1.34 -0.34 0.68 0 0 Z " fill="#242424" transform="translate(350,331)"/>
<path d="M0 0 C0.66 0.33 1.32 0.66 2 1 C1.360625 1.598125 0.72125 2.19625 0.0625 2.8125 C-2.20310389 4.90810337 -2.20310389 4.90810337 -3 8 C-5.0625 8.6875 -5.0625 8.6875 -7 9 C-7 6 -7 6 -6 4 C-5.34 4 -4.68 4 -4 4 C-3.67 3.01 -3.34 2.02 -3 1 C-2.01 0.67 -1.02 0.34 0 0 Z " fill="#1C1C1C" transform="translate(550,318)"/>
<path d="M0 0 C0.66 0.33 1.32 0.66 2 1 C0.7934375 2.175625 0.7934375 2.175625 -0.4375 3.375 C-2.98690417 5.71982856 -2.98690417 5.71982856 -4 8 C-5.65 8 -7.3 8 -9 8 C-6.14723863 5.06799526 -3.34920216 2.35684596 0 0 Z " fill="#D6D6D6" transform="translate(435,352)"/>
<path d="M0 0 C0.66 1.32 1.32 2.64 2 4 C1.01 4.33 0.02 4.66 -1 5 C-1.33 5.66 -1.66 6.32 -2 7 C-5 7 -5 7 -8 5 C-7.05125 4.731875 -6.1025 4.46375 -5.125 4.1875 C-1.74732727 3.25013412 -1.74732727 3.25013412 0 0 Z " fill="#DFDFDF" transform="translate(542,336)"/>
<path d="M0 0 C0.66 0.99 1.32 1.98 2 3 C0.37660195 4.70884005 -1.29319053 6.37446717 -3 8 C-3.66 8 -4.32 8 -5 8 C-5.33 8.66 -5.66 9.32 -6 10 C-5.49477778 5.62140745 -2.82172778 3.18348776 0 0 Z " fill="#141414" transform="translate(697,518)"/>
<path d="M0 0 C2.475 0.99 2.475 0.99 5 2 C3.3125 3.5625 3.3125 3.5625 1 5 C-1.6875 4.8125 -1.6875 4.8125 -4 4 C-4.33 3.34 -4.66 2.68 -5 2 C-3.68 2.33 -2.36 2.66 -1 3 C-0.67 2.01 -0.34 1.02 0 0 Z " fill="#050505" transform="translate(385,351)"/>
<path d="M0 0 C2.0625 1.6875 2.0625 1.6875 4 4 C3.75 6.75 3.75 6.75 3 9 C0.9375 6.75 0.9375 6.75 -1 4 C-0.75 1.6875 -0.75 1.6875 0 0 Z " fill="#292929" transform="translate(410,331)"/>
<path d="M0 0 C0.86625 0.3403125 0.86625 0.3403125 1.75 0.6875 C-0.61292656 3.21338702 -1.91462511 4.57570837 -5.25 5.6875 C-5.58 4.6975 -5.91 3.7075 -6.25 2.6875 C-2.80384615 -0.38942308 -2.80384615 -0.38942308 0 0 Z " fill="#EAEAEA" transform="translate(600.25,321.3125)"/>
<path d="M0 0 C0.33 0 0.66 0 1 0 C1.33 4.29 1.66 8.58 2 13 C1.34 13 0.68 13 0 13 C-0.33 13.66 -0.66 14.32 -1 15 C-0.67 10.05 -0.34 5.1 0 0 Z " fill="#373737" transform="translate(292,531)"/>
<path d="M0 0 C0.33 0.66 0.66 1.32 1 2 C2.32 1.67 3.64 1.34 5 1 C5 1.66 5 2.32 5 3 C0.545 4.485 0.545 4.485 -4 6 C-3 2 -3 2 0 0 Z " fill="#353535" transform="translate(289,476)"/>
<path d="M0 0 C2.31 0 4.62 0 7 0 C6.34 1.32 5.68 2.64 5 4 C3.68 4 2.36 4 1 4 C0.67 2.68 0.34 1.36 0 0 Z " fill="#1D1D1D" transform="translate(551,361)"/>
<path d="M0 0 C0.66 0 1.32 0 2 0 C2 1.65 2 3.3 2 5 C2.99 5.33 3.98 5.66 5 6 C4.34 6 3.68 6 3 6 C3 6.66 3 7.32 3 8 C-1.625 10.125 -1.625 10.125 -5 9 C-4.175 8.62875 -3.35 8.2575 -2.5 7.875 C-1.675 7.25625 -0.85 6.6375 0 6 C0.41746608 2.87364791 0.41746608 2.87364791 0 0 Z " fill="#D6D6D6" transform="translate(584,339)"/>
<path d="M0 0 C2.64 0.33 5.28 0.66 8 1 C8 1.99 8 2.98 8 4 C6.02 4.33 4.04 4.66 2 5 C1.34 3.35 0.68 1.7 0 0 Z " fill="#F6F6F6" transform="translate(591,335)"/>
<path d="M0 0 C0.66 0.99 1.32 1.98 2 3 C1.01 3.66 0.02 4.32 -1 5 C-1.99 6.485 -1.99 6.485 -3 8 C-4.32 7.67 -5.64 7.34 -7 7 C-5.625 5.5 -5.625 5.5 -4 4 C-3.34 4 -2.68 4 -2 4 C-1.34 2.68 -0.68 1.36 0 0 Z " fill="#303030" transform="translate(590,628)"/>
<path d="M0 0 C0.66 0.33 1.32 0.66 2 1 C0.68775452 4.93673644 -0.91910327 7.22719294 -4 10 C-4.66 9.67 -5.32 9.34 -6 9 C-4.02 6.03 -2.04 3.06 0 0 Z " fill="#D9D9D9" transform="translate(627,600)"/>
<path d="M0 0 C1.98 0 3.96 0 6 0 C6.33 1.32 6.66 2.64 7 4 C8.65 4.33 10.3 4.66 12 5 C11.67 5.66 11.34 6.32 11 7 C8.525 6.01 8.525 6.01 6 5 C6 4.34 6 3.68 6 3 C4.02 2.34 2.04 1.68 0 1 C0 0.67 0 0.34 0 0 Z " fill="#656565" transform="translate(482,537)"/>
<path d="M0 0 C2.5 2.3125 2.5 2.3125 5 5 C5 5.99 5 6.98 5 8 C2.4636387 6.98545548 1.20648539 6.3146444 -0.3125 4 C-0.539375 3.34 -0.76625 2.68 -1 2 C-0.67 1.34 -0.34 0.68 0 0 Z " fill="#3C3C3C" transform="translate(321,608)"/>
<path d="M0 0 C3.68754757 0.49831724 5.60490662 1.10067643 8 4 C6.66666667 4.66666667 5.33333333 5.33333333 4 6 C4 5.34 4 4.68 4 4 C2.68 3.34 1.36 2.68 0 2 C0 1.34 0 0.68 0 0 Z " fill="#181818" transform="translate(408,481)"/>
<path d="M0 0 C0.33 0.99 0.66 1.98 1 3 C1.66 3 2.32 3 3 3 C2.67 5.31 2.34 7.62 2 10 C1.67 9.01 1.34 8.02 1 7 C0.34 7 -0.32 7 -1 7 C-0.67 4.69 -0.34 2.38 0 0 Z " fill="#2F2F2F" transform="translate(396,387)"/>
<path d="M0 0 C0.99 0.33 1.98 0.66 3 1 C2.67 2.32 2.34 3.64 2 5 C0.35 4.67 -1.3 4.34 -3 4 C-2.01 2.68 -1.02 1.36 0 0 Z " fill="#0D0D0D" transform="translate(509,316)"/>
<path d="M0 0 C-0.33 1.65 -0.66 3.3 -1 5 C-1.99 4.67 -2.98 4.34 -4 4 C-4.33 4.33 -4.66 4.66 -5 5 C-6.66617115 5.04063832 -8.33388095 5.042721 -10 5 C-9.4225 4.731875 -8.845 4.46375 -8.25 4.1875 C-5.94252104 3.04946754 -5.94252104 3.04946754 -3.875 1.375 C-2 0 -2 0 0 0 Z " fill="#C9C9C9" transform="translate(688,530)"/>
<path d="M0 0 C0.598125 0.185625 1.19625 0.37125 1.8125 0.5625 C4.16408762 1.22093687 4.16408762 1.22093687 7 0 C7.33 0.99 7.66 1.98 8 3 C7.34 3.66 6.68 4.32 6 5 C1.125 2.25 1.125 2.25 0 0 Z " fill="#383838" transform="translate(448,512)"/>
<path d="M0 0 C2.475 0.99 2.475 0.99 5 2 C5 1.34 5 0.68 5 0 C5.66 0 6.32 0 7 0 C8 3 8 3 8 6 C4.63408134 4.55746343 2.48952921 2.66735273 0 0 Z " fill="#C5C5C5" transform="translate(608,497)"/>
<path d="M0 0 C3 3.75 3 3.75 3 6 C3.66 6 4.32 6 5 6 C4.67 6.99 4.34 7.98 4 9 C2.68 9 1.36 9 0 9 C0 6.03 0 3.06 0 0 Z " fill="#282828" transform="translate(393,400)"/>
<path d="M0 0 C0.66 0.66 1.32 1.32 2 2 C0.47793991 4.62901288 -0.84365964 6.84365964 -3 9 C-4.32 8.01 -5.64 7.02 -7 6 C-6.401875 5.938125 -5.80375 5.87625 -5.1875 5.8125 C-2.12856542 4.6763243 -1.44958901 2.82669858 0 0 Z " fill="#BFBFBF" transform="translate(540,271)"/>
<path d="M0 0 C3.36591866 1.44253657 5.51047079 3.33264727 8 6 C7.67 6.66 7.34 7.32 7 8 C5.8274869 7.04882866 4.66212985 6.08882991 3.5 5.125 C2.8503125 4.59132813 2.200625 4.05765625 1.53125 3.5078125 C1.0259375 3.01023437 0.520625 2.51265625 0 2 C0 1.34 0 0.68 0 0 Z " fill="#404040" transform="translate(331,641)"/>
<path d="M0 0 C0.33 0.66 0.66 1.32 1 2 C1.66 2.33 2.32 2.66 3 3 C0.03 5.475 0.03 5.475 -3 8 C-3.66 7.67 -4.32 7.34 -5 7 C-4.54625 6.5875 -4.0925 6.175 -3.625 5.75 C-1.94049626 3.93591905 -1.00734029 2.24714373 0 0 Z " fill="#E1E1E1" transform="translate(620,611)"/>
<path d="M0 0 C2 0 2 0 4.625 2.5 C5.40875 3.325 6.1925 4.15 7 5 C6.34 6.32 5.68 7.64 5 9 C3.35 6.03 1.7 3.06 0 0 Z " fill="#E2E2E2" transform="translate(312,593)"/>
<path d="M0 0 C0 0.66 0 1.32 0 2 C-2.97 2 -5.94 2 -9 2 C-9 1.34 -9 0.68 -9 0 C-2.25 -1.125 -2.25 -1.125 0 0 Z " fill="#525252" transform="translate(377,470)"/>
<path d="M0 0 C0.99 0.33 1.98 0.66 3 1 C1.8125 3 1.8125 3 0 5 C-2.6875 5.25 -2.6875 5.25 -5 5 C-3.35 3.35 -1.7 1.7 0 0 Z " fill="#070707" transform="translate(556,356)"/>
<path d="M0 0 C1.98 1.65 3.96 3.3 6 5 C3 6 3 6 0.8125 5.0625 C0.214375 4.711875 -0.38375 4.36125 -1 4 C-0.67 2.68 -0.34 1.36 0 0 Z " fill="#212121" transform="translate(626,513)"/>
<path d="M0 0 C0 0.33 0 0.66 0 1 C-1.65 1.33 -3.3 1.66 -5 2 C-4.67 2.66 -4.34 3.32 -4 4 C-4.99 4 -5.98 4 -7 4 C-7 3.34 -7 2.68 -7 2 C-8.65 2 -10.3 2 -12 2 C-12 1.67 -12 1.34 -12 1 C-7.9472484 0.01751476 -4.16138263 -0.08159574 0 0 Z " fill="#B0B0B0" transform="translate(524,491)"/>
<path d="M0 0 C1.65 1.65 3.3 3.3 5 5 C4.67 5.99 4.34 6.98 4 8 C2 6.25 2 6.25 0 4 C0 2.68 0 1.36 0 0 Z " fill="#EEEEEE" transform="translate(411,328)"/>
<path d="M0 0 C0.66 0.66 1.32 1.32 2 2 C1.625 4.125 1.625 4.125 1 6 C0.67 5.67 0.34 5.34 0 5 C-0.99 5.99 -1.98 6.98 -3 8 C-1.125 2.25 -1.125 2.25 0 0 Z " fill="#CDCDCD" transform="translate(709,504)"/>
<path d="M0 0 C-1.95216435 1.95216435 -3.53199953 2.84826645 -6 4 C-6 3.34 -6 2.68 -6 2 C-7.32 1.67 -8.64 1.34 -10 1 C-6.59437148 0.22157062 -3.49234244 -0.09978121 0 0 Z " fill="#222222" transform="translate(514,480)"/>
<path d="M0 0 C1.98 0.66 3.96 1.32 6 2 C5.67 2.99 5.34 3.98 5 5 C3.02 4.01 1.04 3.02 -1 2 C-0.67 1.34 -0.34 0.68 0 0 Z " fill="#F2F2F2" transform="translate(360,346)"/>
<path d="M0 0 C1.32 0 2.64 0 4 0 C3.67 0.99 3.34 1.98 3 3 C2.01 3.33 1.02 3.66 0 4 C-0.66 4.66 -1.32 5.32 -2 6 C-2.99 5.34 -3.98 4.68 -5 4 C-4.01 3.67 -3.02 3.34 -2 3 C-1.34 2.01 -0.68 1.02 0 0 Z " fill="#D7D7D7" transform="translate(513,317)"/>
<path d="M0 0 C1.32 0 2.64 0 4 0 C4.33 2.31 4.66 4.62 5 7 C4.67 5.68 4.34 4.36 4 3 C3.01 3.33 2.02 3.66 1 4 C0.67 2.68 0.34 1.36 0 0 Z " fill="#2E2E2E" transform="translate(557,309)"/>
<path d="M0 0 C0.66 0 1.32 0 2 0 C2.66 1.32 3.32 2.64 4 4 C3.34 4 2.68 4 2 4 C1.67 4.66 1.34 5.32 1 6 C0.34 5.34 -0.32 4.68 -1 4 C-0.625 1.875 -0.625 1.875 0 0 Z " fill="#2B2B2B" transform="translate(531,271)"/>
</svg>
